<?xml version="1.0" encoding="UTF-8" standalone="no"?>
<!-- Created with Inkscape (http://www.inkscape.org/) -->
<svg
   xmlns:dc="http://purl.org/dc/elements/1.1/"
   xmlns:cc="http://web.resource.org/cc/"
   xmlns:rdf="http://www.w3.org/1999/02/22-rdf-syntax-ns#"
   xmlns:svg="http://www.w3.org/2000/svg"
   xmlns="http://www.w3.org/2000/svg"
   xmlns:sodipodi="http://inkscape.sourceforge.net/DTD/sodipodi-0.dtd"
   xmlns:inkscape="http://www.inkscape.org/namespaces/inkscape"
   width="461pt"
   height="131pt"
   id="svg1376"
   sodipodi:version="0.32"
   inkscape:version="0.43"
   sodipodi:docname="Brasao_kaiserlslautern.svg"
   sodipodi:docbase="C:\foo\wikipedia\transfer"
   version="1.0"
   inkscape:r_cx="true"
   inkscape:r_cy="true">
  <defs
     id="defs1378" />
  <sodipodi:namedview
     id="base"
     pagecolor="#ffffff"
     bordercolor="#666666"
     borderopacity="1.0"
     inkscape:pageopacity="0.0"
     inkscape:pageshadow="2"
     inkscape:zoom="0.51408157"
     inkscape:cx="372.04724"
     inkscape:cy="448.37243"
     inkscape:document-units="px"
     inkscape:current-layer="layer1"
     borderlayer="false"
     width="210mm"
     height="297mm"
     inkscape:window-width="1024"
     inkscape:window-height="721"
     inkscape:window-x="-4"
     inkscape:window-y="-4"
     showguides="true"
     inkscape:guide-bbox="true">
    <sodipodi:guide
       orientation="horizontal"
       position="988.42812"
       id="guide3321" />
  </sodipodi:namedview>
  <metadata
     id="metadata1381">
    <rdf:RDF>
      <cc:Work
         rdf:about="">
        <dc:format>image/svg+xml</dc:format>
        <dc:type
           rdf:resource="http://purl.org/dc/dcmitype/StillImage" />
        <cc:license
           rdf:resource="http://web.resource.org/cc/PublicDomain" />
      </cc:Work>
      <cc:License
         rdf:about="http://web.resource.org/cc/PublicDomain">
        <cc:permits
           rdf:resource="http://web.resource.org/cc/Reproduction" />
        <cc:permits
           rdf:resource="http://web.resource.org/cc/Distribution" />
        <cc:permits
           rdf:resource="http://web.resource.org/cc/DerivativeWorks" />
      </cc:License>
    </rdf:RDF>
  </metadata>
  <g
     inkscape:label="Layer 1"
     inkscape:groupmode="layer"
     id="layer1"
     inkscape:r_cx="true"
     inkscape:r_cy="true">
    <g
       id="g3287"
       transform="matrix(0,-1.046578,1.046578,0,-94.11572,392.1608)">
      <path
         sodipodi:nodetypes="csssssssssssssssssssssssssc"
         id="path1357"
         d="M 241.12751,630.39251 C 239.62763,626.48389 244.49323,604.62121 251.93997,581.80879 C 265.00494,541.78532 269.23235,499.11392 261.99971,480.26593 C 258.92606,472.25614 257.41551,472.66196 249.05698,483.74311 C 243.85236,490.64303 238.04527,494.73967 236.15234,492.84674 C 231.56611,488.2605 231.63034,427.20039 236.27917,372.27323 C 239.80062,330.66651 239.32331,327.44357 228.51924,319.8761 C 217.70277,312.29995 217.51735,311.03385 225.4511,298.92541 C 234.46965,285.16137 242.50203,253.75273 249.12357,206.36013 C 251.37316,190.25895 257.20329,168.1032 262.07939,157.12512 C 267.05375,145.92584 268.57746,137.16498 265.55091,137.16498 C 256.69313,137.16498 259.43038,123.50415 270.25016,113.71239 C 278.12741,106.58357 281.00426,106.11028 283.35275,111.55676 C 285.5243,116.59291 288.82194,115.20186 295.19939,106.55944 C 300.05999,99.972586 305.98619,94.583346 308.36872,94.583346 C 315.57935,94.583346 342.38495,156.30754 353.87528,191.46238 C 368.75151,236.97645 378.15243,319.66607 359.59616,429.91368 C 353.97435,463.15724 356.20699,492.92118 356.12128,495.1168 C 356.03557,497.31241 353.79446,499.10883 351.14104,499.10883 C 348.48762,499.10883 347.72309,493.71959 349.44209,487.13274 C 352.36861,475.91891 351.99811,475.72533 343.62108,484.0912 C 328.60597,499.0863 331.83234,543.89537 350.64273,581.61073 C 366.28282,612.96955 371.21726,637.49912 361.88541,637.49912 C 359.28642,637.49912 344.48844,628.78266 329.00101,618.12916 C 301.60225,599.28211 300.61617,599.03508 292.47549,608.97816 C 281.38798,622.52045 259.51203,637.49912 250.82133,637.49912 C 246.98961,637.49912 242.62739,634.30113 241.12751,630.39251 z "
         style="fill:#000000" />
      <path
         sodipodi:nodetypes="csssssssscccsssssssccsssc"
         id="path1355"
         d="M 281.04473,608.71298 C 297.69339,590.91402 307.40308,591.32786 332.01327,610.8856 C 367.33086,638.95248 367.07852,632.88198 342.65868,575.93173 C 335.72778,559.76798 327.63041,536.56886 329.09634,514.40859 C 331.2549,481.77802 346.27825,447.76739 351.92965,412.08097 C 358.34393,371.57718 361.28814,337.99549 361.28814,336.06993 C 361.28814,329.08451 361.28814,321.22574 361.28814,318.241 C 361.28814,315.25626 361.28814,299.71716 361.28814,296.72072 C 361.28814,293.66019 355.89665,236.45333 353.9694,234.52608 C 352.04215,232.59883 344.78675,173.28626 323.86014,130.04011 L 308.82212,98.963066 L 300.32087,115.40268 C 291.14719,133.14261 281.44759,137.15325 281.44759,123.20648 C 281.44759,115.87227 280.15628,115.64239 272.87988,121.68126 C 267.51999,126.12957 266.52356,129.52895 270.21853,130.76061 C 278.39938,133.48756 277.59916,145.48811 267.99847,164.0538 C 263.52894,172.69691 258.91528,191.14089 257.74589,205.04042 C 256.5765,218.93995 253.04773,238.67974 249.90419,248.90662 C 246.76065,259.13349 244.20445,272.30719 244.22373,278.18149 L 244.68477,288.86203 L 244.74355,344.75042 C 244.7843,383.49684 247.96385,412.06679 255.1099,437.89774 C 279.61703,526.48398 279.49517,523.8319 261.52117,577.42443 C 252.54423,604.19065 246.48457,627.37539 248.05526,628.94607 C 252.22456,633.11539 266.2866,624.49086 281.04473,608.71298 z "
         style="fill:#4f75a7;fill-opacity:1" />
      <path
         id="path1333"
         d="M 245.78809,468.98597 C 241.72475,458.39706 240.19664,460.23878 240.19664,475.72493 C 240.19664,484.59662 241.6985,487.16989 244.36154,482.86099 C 246.65224,479.15456 247.29419,472.9108 245.78809,468.98597 z "
         style="fill:#000000" />
      <path
         id="path1364"
         d="M 239.43719,481.17308 C 243.0649,483.7643 257.05749,471.84469 253.94803,465.62576 C 250.83856,459.40683 240.99192,401.36349 240.99192,401.36349 C 240.99192,401.36349 238.4007,440.75004 238.4007,447.48722 C 238.4007,454.22439 235.29124,478.06362 239.43719,481.17308 z "
         style="fill:#4f75a7;fill-opacity:1;fill-rule:evenodd;stroke:#000000;stroke-width:1px;stroke-linecap:butt;stroke-linejoin:miter;stroke-opacity:1" />
      <path
         id="path1366"
         d="M 237.88246,286.83154 C 237.88246,286.83154 235.80948,296.67817 236.84597,304.45184 C 237.88246,312.2255 238.91895,318.96267 238.91895,318.96267 C 238.91895,318.96267 225.96284,313.78023 225.4446,311.18901 C 224.92635,308.59779 237.88246,286.83154 237.88246,286.83154 z "
         style="fill:#4f75a7;fill-opacity:1;fill-rule:evenodd;stroke:#000000;stroke-width:1px;stroke-linecap:butt;stroke-linejoin:miter;stroke-opacity:1" />
      <path
         id="path1370"
         d="M 318.6525,151.58468 C 310.89638,152.05082 304.74625,158.83551 304.74625,167.11593 C 304.74625,175.69805 311.34323,182.67844 319.49625,182.67843 C 327.64926,182.67843 334.2775,175.69804 334.2775,167.11593 C 334.2775,158.53381 327.64926,151.58467 319.49625,151.58468 C 319.20962,151.58468 318.93511,151.56769 318.6525,151.58468 z M 318.715,155.33468 C 321.908,155.16318 326.25126,156.42761 327.965,158.52218 C 330.81381,162.00407 332.98553,170.31322 329.55875,170.86593 C 324.65246,171.65727 326.08094,163.73187 324.34,161.99093 C 324.3264,161.97733 324.29181,161.97271 324.2775,161.95968 C 324.21886,161.90866 324.1281,161.84597 324.05875,161.80343 C 321.90433,160.53655 314.99625,162.97498 314.99625,157.74093 C 314.99625,156.20841 316.60015,155.44827 318.715,155.33468 z "
         style="opacity:0.93956042;fill:#000000;fill-opacity:1;fill-rule:evenodd;stroke:none;stroke-width:1;stroke-linecap:round;stroke-linejoin:round;stroke-miterlimit:4;stroke-dasharray:none;stroke-dashoffset:0;stroke-opacity:1" />
      <g
         transform="translate(-317.157,-182.506)"
         id="g2316">
        <path
           style="fill:#000000;fill-opacity:1;fill-rule:evenodd;stroke:none;stroke-width:1px;stroke-linecap:butt;stroke-linejoin:miter;stroke-opacity:1"
           d="M 674.23561,411.2942 C 674.32684,410.98985 670.93276,402.06361 671.12612,401.9658 C 664.06407,418.97005 656.00199,425.22567 645.61344,434.31977 C 642.83464,436.36633 613.18131,449.54232 612.75046,449.54928 C 621.35816,444.35909 638.83121,441.59537 648.56263,438.79941 C 657.04619,435.01758 663.89939,430.09627 668.15743,422.2241 C 670.17568,419.17634 672.58965,415.22626 674.23561,411.2942 z "
           id="path2279"
           sodipodi:nodetypes="ccccccc" />
        <path
           sodipodi:nodetypes="ccccccc"
           id="path2290"
           d="M 676.30859,435.65167 C 676.39982,435.34732 673.00574,426.42108 673.1991,426.32327 C 666.13705,443.32752 658.07497,449.58314 647.68642,458.67724 C 644.90762,460.7238 615.25429,473.89979 614.82344,473.90675 C 623.43114,468.71656 640.90419,465.95284 650.63561,463.15688 C 659.11917,459.37505 665.97237,454.45374 670.23041,446.58157 C 672.24866,443.53381 674.66263,439.58373 676.30859,435.65167 z "
           style="fill:#000000;fill-opacity:1;fill-rule:evenodd;stroke:none;stroke-width:1px;stroke-linecap:butt;stroke-linejoin:miter;stroke-opacity:1" />
        <path
           style="fill:#000000;fill-opacity:1;fill-rule:evenodd;stroke:none;stroke-width:1px;stroke-linecap:butt;stroke-linejoin:miter;stroke-opacity:1"
           d="M 678.303,460.58111 C 678.42908,460.28947 676.09846,451.02849 676.3019,450.95388 C 667.30617,467.01918 658.56996,472.29256 647.19231,480.11392 C 644.19392,481.82267 613.20705,491.45285 612.77832,491.40954 C 621.93227,487.25793 639.60835,486.54949 649.59931,484.90675 C 658.46582,482.13943 665.84588,478.05039 670.99238,470.72813 C 673.35209,467.93636 676.20998,464.29454 678.303,460.58111 z "
           id="path2292"
           sodipodi:nodetypes="ccccccc" />
        <path
           sodipodi:nodetypes="ccccccc"
           id="path2294"
           d="M 679.35622,483.82904 C 679.48917,483.59887 678.51321,475.63891 678.68769,475.59761 C 669.6813,488.06643 661.97919,491.56512 651.85188,496.91658 C 649.21864,498.03306 622.81731,502.87789 622.46988,502.79774 C 630.40134,500.27715 644.97777,501.50252 653.34236,501.15946 C 660.89797,499.76336 667.36747,497.11269 672.33109,491.53714 C 674.54976,489.45218 677.26319,486.70975 679.35622,483.82904 z "
           style="fill:#000000;fill-opacity:1;fill-rule:evenodd;stroke:none;stroke-width:1px;stroke-linecap:butt;stroke-linejoin:miter;stroke-opacity:1" />
        <path
           style="fill:#000000;fill-opacity:1;fill-rule:evenodd;stroke:none;stroke-width:1px;stroke-linecap:butt;stroke-linejoin:miter;stroke-opacity:1"
           d="M 679.7582,507.44876 C 679.89557,507.25158 680.14252,499.28135 680.2889,499.27708 C 671.38874,509.58606 664.70959,511.40987 655.82962,514.54104 C 653.55648,515.08681 631.59163,514.36229 631.32131,514.21231 C 638.05854,513.39045 649.67811,517.59699 656.48205,518.98978 C 662.76926,519.18777 668.34203,517.93702 673.07844,513.52064 C 675.14258,511.94403 677.69206,509.82794 679.7582,507.44876 z "
           id="path2296"
           sodipodi:nodetypes="ccccccc" />
        <path
           sodipodi:nodetypes="ccccccc"
           id="path2298"
           d="M 676.17414,533.52143 C 676.35913,533.36803 678.72297,525.7524 678.86519,525.78733 C 667.53781,533.34897 660.61417,533.32524 651.22074,533.97448 C 648.88438,533.89418 627.90849,527.33739 627.68797,527.12074 C 634.40034,528.12563 644.47699,535.27898 650.66296,538.43608 C 656.6696,540.30384 662.37409,540.58478 668.11686,537.5917 C 670.52674,536.62276 673.54827,535.26333 676.17414,533.52143 z "
           style="fill:#000000;fill-opacity:1;fill-rule:evenodd;stroke:none;stroke-width:1px;stroke-linecap:butt;stroke-linejoin:miter;stroke-opacity:1" />
        <path
           style="fill:#000000;fill-opacity:1;fill-rule:evenodd;stroke:none;stroke-width:1px;stroke-linecap:butt;stroke-linejoin:miter;stroke-opacity:1"
           d="M 675.6559,554.2512 C 675.84089,554.0978 678.20473,546.48217 678.34695,546.5171 C 667.01957,554.07874 660.09593,554.05501 650.7025,554.70425 C 648.36614,554.62395 627.39025,548.06716 627.16973,547.85051 C 633.8821,548.8554 643.95875,556.00875 650.14472,559.16585 C 656.15136,561.03361 661.85585,561.31455 667.59862,558.32147 C 670.0085,557.35253 673.03003,555.9931 675.6559,554.2512 z "
           id="path2300"
           sodipodi:nodetypes="ccccccc" />
        <path
           sodipodi:nodetypes="ccccccc"
           id="path2302"
           d="M 672.90415,581.40808 C 673.11762,581.29771 677.05291,574.36236 677.18439,574.42685 C 664.50377,579.39572 657.74484,577.89433 648.42938,576.52309 C 646.16403,575.94583 627.07168,565.06183 626.9025,564.80309 C 633.24555,567.21792 641.56261,576.35771 646.9319,580.76273 C 652.40127,583.86985 657.91425,585.36223 664.16364,583.66426 C 666.72482,583.23217 669.96693,582.54919 672.90415,581.40808 z "
           style="fill:#000000;fill-opacity:1;fill-rule:evenodd;stroke:none;stroke-width:1px;stroke-linecap:butt;stroke-linejoin:miter;stroke-opacity:1" />
        <path
           style="fill:#000000;fill-opacity:1;fill-rule:evenodd;stroke:none;stroke-width:1px;stroke-linecap:butt;stroke-linejoin:miter;stroke-opacity:1"
           d="M 670.14761,600.8188 C 670.34348,600.7172 673.95429,594.33277 674.07493,594.39214 C 662.43988,598.9663 656.23825,597.58417 647.69089,596.32186 C 645.61233,595.79045 628.09422,585.77103 627.93899,585.53285 C 633.75903,587.75586 641.39032,596.16961 646.31688,600.22471 C 651.33528,603.08502 656.39369,604.45885 662.1278,602.89576 C 664.4778,602.49799 667.45258,601.86926 670.14761,600.8188 z "
           id="path2304"
           sodipodi:nodetypes="ccccccc" />
        <path
           sodipodi:nodetypes="ccccccc"
           id="path2306"
           d="M 663.84928,624.15836 C 664.03795,624.08141 668.03299,618.31172 668.13522,618.38193 C 657.09551,621.54396 651.64901,619.54494 644.06876,617.40958 C 642.25111,616.67384 627.56688,605.12926 627.45388,604.88288 C 632.45914,607.6519 638.39189,616.5861 642.37969,621.02613 C 646.5874,624.3237 651.00163,626.19193 656.36314,625.30021 C 658.5326,625.16895 661.29319,624.88205 663.84928,624.15836 z "
           style="fill:#000000;fill-opacity:1;fill-rule:evenodd;stroke:none;stroke-width:1px;stroke-linecap:butt;stroke-linejoin:miter;stroke-opacity:1" />
        <path
           style="fill:#000000;fill-opacity:1;fill-rule:evenodd;stroke:none;stroke-width:1px;stroke-linecap:butt;stroke-linejoin:miter;stroke-opacity:1"
           d="M 658.57638,640.9134 C 658.71698,640.84611 661.69416,635.80079 661.77034,635.86219 C 653.54335,638.62723 649.48452,636.87919 643.83559,635.01192 C 642.48104,634.36855 631.53809,624.27336 631.45388,624.05791 C 635.18389,626.47929 639.60508,634.29182 642.57686,638.17442 C 645.71252,641.05799 649.00208,642.69166 652.99758,641.9119 C 654.6143,641.79712 656.67154,641.54624 658.57638,640.9134 z "
           id="path2308"
           sodipodi:nodetypes="ccccccc" />
        <path
           sodipodi:nodetypes="ccccccc"
           id="path2310"
           d="M 654.33086,658.15245 C 654.45464,658.09289 657.07557,653.62706 657.14263,653.68141 C 649.90009,656.12886 646.32695,654.5816 641.35398,652.9288 C 640.16151,652.35933 630.52801,643.42365 630.45388,643.23295 C 633.73755,645.37621 637.6297,652.29141 640.24587,655.72806 C 643.00631,658.28043 645.90224,659.72646 649.41963,659.03626 C 650.84289,658.93467 652.65396,658.7126 654.33086,658.15245 z "
           style="fill:#000000;fill-opacity:1;fill-rule:evenodd;stroke:none;stroke-width:1px;stroke-linecap:butt;stroke-linejoin:miter;stroke-opacity:1" />
        <path
           style="fill:#000000;fill-opacity:1;fill-rule:evenodd;stroke:none;stroke-width:1px;stroke-linecap:butt;stroke-linejoin:miter;stroke-opacity:1"
           d="M 650.30348,673.4555 C 650.39601,673.4114 652.35533,670.10457 652.40546,670.14481 C 646.99119,671.95709 644.32003,670.81138 640.60241,669.58752 C 639.71097,669.16584 632.5093,662.54919 632.45388,662.40798 C 634.90864,663.99501 637.81827,669.11555 639.77403,671.6603 C 641.83764,673.55027 644.00254,674.62102 646.63202,674.10994 C 647.696,674.03472 649.04989,673.87028 650.30348,673.4555 z "
           id="path2312"
           sodipodi:nodetypes="ccccccc" />
        <path
           sodipodi:nodetypes="ccccccc"
           id="path2314"
           d="M 647.34987,685.0281 C 647.42558,684.99366 649.02865,682.4112 649.06966,682.44263 C 644.63984,683.85792 642.45437,682.96318 639.41271,682.00741 C 638.68335,681.6781 632.79113,676.51085 632.74579,676.40057 C 634.75421,677.63996 637.1348,681.63883 638.73495,683.62615 C 640.42334,685.10211 642.19461,685.93831 644.34598,685.53919 C 645.2165,685.48044 646.32422,685.35203 647.34987,685.0281 z "
           style="fill:#000000;fill-opacity:1;fill-rule:evenodd;stroke:none;stroke-width:1px;stroke-linecap:butt;stroke-linejoin:miter;stroke-opacity:1" />
        <g
           transform="translate(-613.5646,14.81015)"
           id="g2343">
          <path
             id="path2332"
             style="fill:#000000;fill-opacity:1;fill-rule:evenodd;stroke:none;stroke-width:1px;stroke-linecap:butt;stroke-linejoin:miter;stroke-opacity:1"
             d="M 1190.4067,365.17047 C 1188.852,373.63512 1189.3702,374.84436 1189.8885,376.0536 C 1190.3839,377.20954 1190.5794,378.47207 1190.9249,379.6813 C 1193.2311,387.75275 1201.3613,394.48701 1208.027,397.81985 C 1214.8768,401.24475 1222.3926,403.52053 1230.3115,403.52053 C 1233.5949,403.52053 1239.067,398.87454 1243.2676,394.19214 C 1241.14,391.61912 1235.6679,396.26511 1232.3845,396.26511 C 1224.4656,396.26511 1216.9498,393.98933 1210.1,390.56443 C 1203.4343,387.23159 1195.3041,380.49733 1192.9979,372.42588 C 1192.6524,371.21665 1192.4569,369.95412 1191.9615,368.79818 C 1191.4432,367.58894 1190.925,366.3797 1190.4067,365.17047 z "
             sodipodi:nodetypes="csssscssssc" />
          <path
             sodipodi:nodetypes="csssscssssc"
             d="M 1188.7253,390.39204 C 1189.1855,398.98597 1189.9712,400.0412 1190.757,401.09641 C 1191.5081,402.10512 1191.9923,403.28736 1192.61,404.38282 C 1196.7333,411.69484 1206.2087,416.34958 1213.4675,418.03771 C 1220.9267,419.77247 1228.7659,420.23457 1236.4669,418.3896 C 1239.6599,417.62463 1243.899,411.83159 1246.8931,406.29937 C 1244.2246,404.29286 1239.9855,410.0859 1236.7925,410.85087 C 1229.0915,412.69584 1221.2523,412.23374 1213.793,410.49898 C 1206.5343,408.81085 1197.0589,404.15611 1192.9356,396.84409 C 1192.3179,395.74863 1191.8336,394.56639 1191.0825,393.55768 C 1190.2968,392.50247 1189.5111,391.44724 1188.7253,390.39204 z "
             style="fill:#000000;fill-opacity:1;fill-rule:evenodd;stroke:none;stroke-width:1px;stroke-linecap:butt;stroke-linejoin:miter;stroke-opacity:1"
             id="path2341" />
        </g>
      </g>
      <path
         sodipodi:nodetypes="cccccccccccccc"
         id="path2350"
         d="M 280.36546,542.8661 C 288.14413,545.53307 315.25835,546.86656 322.81477,542.8661 C 326.59298,557.08995 339.70559,596.65004 339.70559,596.65004 C 339.70559,596.65004 319.48105,554.86747 319.48105,555.75646 C 319.48105,556.64545 324.815,589.98261 322.81477,588.42687 C 320.81454,586.87114 311.92463,557.97894 311.92463,557.97894 C 311.92463,557.97894 310.14665,588.20463 309.4799,586.6489 C 308.81316,585.09316 304.14596,559.31242 304.14596,559.31242 C 304.14596,559.31242 300.59,588.20462 299.70101,587.31563 C 298.81202,586.42664 296.36729,556.8677 295.9228,558.64568 C 295.70055,558.86793 283.03243,589.09362 283.03243,587.31563 C 283.03243,585.53765 286.783,555.28439 286.58839,555.31197 C 286.81064,555.53421 266.14161,599.09476 266.14161,597.53903 C 266.14161,595.98329 280.14321,543.53284 280.36546,542.8661 z "
         style="fill:#000000;fill-opacity:1;fill-rule:evenodd;stroke:none;stroke-width:1px;stroke-linecap:butt;stroke-linejoin:miter;stroke-opacity:1" />
      <path
         d="M 284.81041,277.7246 C 287.92188,284.16979 285.6994,289.94823 284.58816,295.72667 C 283.47692,301.50511 291.47784,311.7285 289.92211,316.3957 C 288.36637,321.0629 285.92165,325.28561 285.03266,339.50946 C 284.14367,353.73331 284.58816,360.84524 284.58816,360.84524 C 284.58816,360.84524 273.92027,361.95648 271.03105,356.62253 C 268.14183,351.28859 265.47486,340.39845 262.58564,333.73102 C 259.69642,327.06359 257.02945,320.39616 254.58472,315.28446 C 252.14,310.17277 250.58427,290.61497 251.02876,287.05901 C 251.47326,283.50304 261.02991,279.50259 262.58564,276.16887 C 264.14137,272.83515 267.91959,268.3902 269.25307,271.50167 C 270.58656,274.61314 271.92004,282.39181 269.47532,284.16979 C 267.03059,285.94777 260.36316,289.94823 259.91867,293.50419 C 259.47417,297.06015 272.14229,292.83745 274.58702,291.94846 C 277.03174,291.05947 279.25422,280.16933 279.47647,277.28011 C 279.69871,274.39089 285.2549,277.7246 284.81041,277.7246 z M 259.91867,308.83928 C 266.36385,315.06222 278.80972,321.0629 279.25422,323.95212 C 279.69871,326.84134 281.0322,355.0668 279.25422,354.6223 C 277.47624,354.17781 271.6978,341.28744 268.36408,336.62024 C 265.03037,331.95304 260.36316,309.50602 259.91867,308.83928 z M 279.47647,302.17185 C 281.25445,311.50625 285.47715,322.61864 281.25445,318.61818 C 277.03174,314.61772 272.58679,303.50534 272.58679,302.61634 C 272.58679,301.72735 271.92004,311.95075 270.80881,311.50625 C 269.69757,311.06176 264.36362,304.17208 262.80789,302.17185 C 261.25215,300.17162 268.36408,297.94914 272.80903,298.17139 C 277.25399,298.39364 279.92096,302.3941 279.47647,302.17185 z "
         style="fill:#000000;fill-opacity:1;fill-rule:evenodd;stroke:none;stroke-width:1px;stroke-linecap:butt;stroke-linejoin:miter;stroke-opacity:1"
         id="path2352" />
    </g>
  </g>
</svg>
