<?xml version="1.0" encoding="UTF-8"?>
<svg width="1052.3625" height="744.09497" xmlns="http://www.w3.org/2000/svg" xmlns:svg="http://www.w3.org/2000/svg">
 <metadata id="metadata2751">image/svg+xml</metadata>

 <clipPath id="clp1">
  <path stroke="#000000" id="path2740" d="m0,0l595.276,0l0,841.89l-595.276,0l0,-841.89z"/>
 </clipPath>
 <g>
  <title>Layer 1</title>
  <g fill="#d40000" transform="matrix(2.8617151,0,0,2.8617151,-279.82651,-362.14629) " id="g2742" clip-path="url(#clp1)">
   <g fill="#d40000" id="g2744">
    <path fill="#ff0000" id="path2746" d="m360.818002,153.4867c6.395,0.261 17.357,-0.715 17.357,-0.715l-17.284,-0.807c0,0 -79.67,-3.826 -135.553,-3.826c-23.533,0 -46.649,3.398 -65.514,9.94c0,0 -1.931,2.296 -1.931,2.296c18.923,-6.99 42.746,-10.714 67.445,-10.714c51.68,0 123.715,3.274 134.19,3.764c0,0.001 1.29,0.062 1.29,0.062zm72.965,96.788c-1.508,2.387 -4.21,6.522 -7.36,10.697c4.347,-6.853 7.631,-13.611 7.631,-13.611c0,0 -18.222,-15.291 -18.222,-15.291c-0.637,2.941 -1.859,8.194 -3.533,13.657c1.873,-8.522 2.705,-16.561 2.705,-16.561c0,0 -24.112,-8.775 -24.112,-8.775c0.436,3.176 1.15,9.013 1.472,15.241c-1.242,-9.301 -3.357,-17.728 -3.357,-17.728c0,0 -27.956,0 -27.956,0c1.177,2.904 3.156,8.164 4.664,14.092c-2.303,-9.003 -7.194,-15.715 -7.194,-15.715l-84.125,0l-2.284,2.607l-6.311,0l-2.284,2.607l-6.311,0l-2.284,2.607l-6.311,0l-2.284,2.606l-31.105,0c0,0 6.581,4.803 17.862,4.803c0,0 -3.626,2.82 -11.012,2.82c-4.103,0 -6.839,0.58 -9.012,1.648c-11.176,-2.093 -23.55,-5.884 -33.309,-10.027c-19.207,-8.156 -28.545,-23.437 -28.545,-49.796c0,-5.684 1.88,-10.763 5.309,-15.247c0,0 1.954,-2.36 1.954,-2.36c15.048,-16.089 52.137,-23.798 98.608,-23.798c54.618,0 126.211,9.576 139.923,11.482c0.795,0.118 1.576,0.229 2.324,0.328c6.346,0.839 15.092,0.474 15.092,0.474l-14.874,-1.98c0,0 -81.716,-11.826 -142.466,-11.826c-47.832,0 -87.26,8.176 -101.589,26.439c0,0 -1.641,2.283 -1.641,2.283c-2.716,4.229 -4.165,8.959 -4.165,14.208c0,26.823 9.58,42.75 29.472,51.197c12.261,5.207 24.517,8.218 32.031,9.75c-0.36,0.258 -0.709,0.531 -1.052,0.82c-4.188,-0.157 -13.903,-0.408 -26.845,-0.01c-17.771,0.547 -65.545,-3.138 -65.545,-36.069c0,-17.065 13.847,-30.434 34.85,-39.366c0,0 1.684,-2.344 1.684,-2.344c-22.71,9.077 -38.057,23.152 -38.057,41.71c0,34.754 49.972,38.213 67.115,37.591c11.138,-0.404 22.285,-0.001 26.918,0.2c4.708,0.205 49.613,4.449 62.046,6.245c8.17,1.18 20.366,4.597 38.506,8.185c0,0 -0.903,0.903 -0.903,0.903l-38.812,0l-13.657,13.656l-5.543,13.383l3.962,-6.482l-3.306,10.063l6.718,-15.134l-0.922,-0.922l1.608,0.026l12.147,-10.638l-0.462,-1.815l1.864,1.384l36.406,1.366l0,-1.43l0.94,0.705l6.312,-3.357l-1.575,-0.787l2.648,0.49l-1.019,2.438l-37.651,15.595l-7.76,18.735l0,15.208l1.239,-7.879l0.836,11.09l0.436,-17.379l-1.264,-0.524l1.57,-0.62l7.509,-15.2l-1.178,-1.575l2.364,0.594l35.864,-13.303l-0.574,-1.387l1.195,0.306l4.009,-4.391l-1.562,-0.992l2.929,0.5l0,3.528l-30.257,30.255l0,21.292l6.111,14.752l-1.964,-8.141l5.267,10.422l-6.56,-17.033l-1.437,0l1.274,-1.232l1.177,-17.762l-1.776,-1.056l2.532,-0.373l29.444,-27.314l-1.115,-1.114l1.283,-0.183l1.37,-4.34l-2.051,-1.159l3.409,0.537l1.846,4.338l-17.193,41.505l8.554,20.653l11.855,11.855l-5.177,-7.107l9.296,7.993l-13.208,-13.887l-1.394,0.577l0.74,-1.708l-5.995,-17.702l-2.146,-0.31l2.306,-1.38l17.587,-38.325l-1.529,-0.634l1.17,-0.692l-0.284,-3.145c0,0 -2.651,-1.466 -2.651,-1.466c1.126,0.165 2.213,0.297 3.261,0.399c0,0 4.125,4.133 4.125,4.133l-0.002,47.169l16.597,16.598l16.263,6.736l-7.877,-4.814l12.229,4.019l-18.391,-8.164l-1.12,1.12l0.032,-1.954l-12.928,-14.763l-2.207,0.562l1.683,-2.265l1.662,-44.243l-1.737,0l0.857,-1.143l-0.864,-1.655c0,0 -3.661,-1.071 -3.661,-1.071c7.937,0.096 13.277,-1.816 16.799,-4.728c1.957,0.871 5.176,2.229 8.834,3.479c0,0 -1.961,9.438 -1.961,9.438l0.519,0.165l0.634,11.413l-1.975,8.795l-1.193,8.502l4.405,-12.198l2.041,-14.394l-2.316,-1.612l3.39,1.075l3.809,-7.921c0,0 -4.736,-2.416 -4.736,-2.416c3.795,1.157 7.835,2.068 11.313,2.146c0,0 -2.828,4.572 -2.828,4.572l0.401,0.309l-3.076,10.176l-4.523,7.059l-3.747,7.05l7.729,-9.259l6.362,-11.929l-1.511,-2.146l2.621,2.018l5.626,-5.633l-2.506,-2.753c0,0 0.435,-0.148 0.435,-0.148c2.653,1.915 5.483,3.651 8.138,4.684c0,0 -4.024,3.174 -4.024,3.174l0.252,0.397l-5.925,7.915l-6.198,4.729l-5.517,4.97l9.7,-5.633l9.355,-8.401l-0.638,-2.355l1.648,2.597l6.762,-3.131l-1.39,-3.292c0,0 0.394,0.014 0.394,0.014c1.726,2.551 3.671,5.007 5.687,6.772c0,0 -4.645,1.533 -4.645,1.533l0.094,0.427l-7.696,5.032l-6.921,2.162l-6.402,2.588l10.268,-1.838l10.847,-4.366l0.192,-2.262l0.615,2.794l7.081,-0.566l-0.335,-3.429c0,0 0.306,0.129 0.306,0.129c0.7,2.816 1.629,5.625 2.847,7.838c0,0 -4.672,-0.143 -4.672,-0.143l-0.054,0.404l-8.325,1.949l-6.736,-0.312l-6.417,0.226l9.558,1.661l10.869,-0.366l0.887,-1.915l-0.352,2.637l6.32,1.863l0.888,-3.293c0,0 0.197,0.189 0.197,0.189c-0.573,5.326 -0.366,10.938 2.516,12.957c0,0 0.21,0.137 0.21,0.137c-3.483,11.403 -7.851,27.845 -5.333,31.44c0.565,0.807 1.355,1.454 2.295,1.973c-12.921,5.522 -37.691,17.191 -36.854,25.154c1.057,10.054 0.576,14.285 5.382,13.779c0.56,-0.059 1.604,-0.636 3.012,-1.61c0,0 -0.565,-1.885 -0.565,-1.885c-0.886,-2.898 1.745,-6.792 5.991,-10.896c-3.767,4.115 -6.016,7.908 -5.185,10.627c2.956,9.668 3.291,13.913 7.912,12.5c3.986,-1.219 28.259,-35.788 34.849,-45.259c-1.862,0.06 -5.117,0.025 -8.222,-0.682c5.065,0.551 10.251,-0.182 10.251,-0.182c0,0 13.559,-39.474 13.559,-39.474c-2.396,0.753 -6.136,1.858 -10.139,2.779c6.69,-2.123 12.624,-4.776 12.624,-4.776c0,0 -3.547,-20.117 -3.547,-20.117c-2.094,1.617 -5.717,4.324 -9.73,6.927c5.979,-4.606 10.999,-9.469 10.999,-9.469c0,0 -11.024,-19.093 -11.024,-19.093zm-170.436,-20.373c0,1.768 -1.433,3.2 -3.201,3.2c-1.768,0 -3.201,-1.433 -3.201,-3.2c0,-1.769 1.433,-3.201 3.201,-3.201c1.768,0 3.201,1.433 3.201,3.201z"/>
   </g>
  </g>
 </g>
</svg>